G04*
G04 #@! TF.GenerationSoftware,Altium Limited,Altium Designer,22.10.1 (41)*
G04*
G04 Layer_Color=8388736*
%FSLAX25Y25*%
%MOIN*%
G70*
G04*
G04 #@! TF.SameCoordinates,1A4408B6-C678-4EC5-8732-532A1CECFF35*
G04*
G04*
G04 #@! TF.FilePolarity,Negative*
G04*
G01*
G75*
%ADD14C,0.01000*%
%ADD15R,0.05236X0.05236*%
%ADD16R,0.03543X0.07874*%
%ADD17R,0.07874X0.03543*%
%ADD18C,0.06800*%
%ADD19R,0.06706X0.06706*%
%ADD20C,0.06706*%
%ADD21R,0.06706X0.06706*%
%ADD22C,0.06312*%
%ADD23R,0.05512X0.05512*%
%ADD24C,0.05512*%
%ADD25R,0.05512X0.05512*%
%ADD26C,0.05800*%
D14*
X248500Y442000D02*
X483000D01*
Y175000D02*
Y442000D01*
X248500Y175000D02*
X483000D01*
X248500D02*
Y442000D01*
D15*
X338713Y337315D02*
D03*
X345937D02*
D03*
X353161D02*
D03*
X338713Y330091D02*
D03*
X345937D02*
D03*
X353161D02*
D03*
X338713Y322866D02*
D03*
X345937D02*
D03*
X353161D02*
D03*
D16*
X319500Y369500D02*
D03*
X324500D02*
D03*
X329500D02*
D03*
X334500D02*
D03*
X339500D02*
D03*
X344500D02*
D03*
X349500D02*
D03*
X354500D02*
D03*
X359500D02*
D03*
X364500D02*
D03*
D17*
X308535Y300563D02*
D03*
Y305563D02*
D03*
Y310563D02*
D03*
Y315563D02*
D03*
Y320563D02*
D03*
Y325563D02*
D03*
Y330563D02*
D03*
Y335563D02*
D03*
Y340563D02*
D03*
Y345563D02*
D03*
Y350563D02*
D03*
Y355563D02*
D03*
Y360563D02*
D03*
Y365563D02*
D03*
X375465D02*
D03*
Y360563D02*
D03*
Y355563D02*
D03*
Y350563D02*
D03*
Y345563D02*
D03*
Y340563D02*
D03*
Y335563D02*
D03*
Y330563D02*
D03*
Y325563D02*
D03*
Y320563D02*
D03*
Y315563D02*
D03*
Y310563D02*
D03*
Y305563D02*
D03*
Y300563D02*
D03*
D18*
X467500Y191000D02*
D03*
X264000Y426500D02*
D03*
X264500Y191000D02*
D03*
X467000Y426500D02*
D03*
D19*
X356500Y251500D02*
D03*
X412295Y395642D02*
D03*
X332500Y409500D02*
D03*
X418000Y263500D02*
D03*
D20*
X356500Y241500D02*
D03*
X346500Y251500D02*
D03*
Y241500D02*
D03*
X336500Y251500D02*
D03*
Y241500D02*
D03*
X412295Y413358D02*
D03*
X386705D02*
D03*
Y395642D02*
D03*
X282000Y239500D02*
D03*
X292000Y249500D02*
D03*
X282000D02*
D03*
X292000Y259500D02*
D03*
X282000D02*
D03*
X405000Y303500D02*
D03*
Y313500D02*
D03*
Y323500D02*
D03*
Y333500D02*
D03*
Y343500D02*
D03*
Y353500D02*
D03*
Y363500D02*
D03*
X283000Y327000D02*
D03*
Y337000D02*
D03*
Y347000D02*
D03*
Y357000D02*
D03*
Y367000D02*
D03*
Y377000D02*
D03*
Y387000D02*
D03*
Y317000D02*
D03*
X436000Y407500D02*
D03*
X292500Y409500D02*
D03*
X302500D02*
D03*
X312500D02*
D03*
X322500D02*
D03*
X408000Y263500D02*
D03*
X397500Y216500D02*
D03*
X407500D02*
D03*
X417500D02*
D03*
X387500Y246500D02*
D03*
X397500D02*
D03*
X407500D02*
D03*
X417500D02*
D03*
D21*
X292000Y239500D02*
D03*
X405000Y293500D02*
D03*
X283000Y307000D02*
D03*
X436000Y417500D02*
D03*
X387500Y216500D02*
D03*
D22*
X337500Y193500D02*
D03*
X367500D02*
D03*
X416000Y194000D02*
D03*
X386000D02*
D03*
X465000Y290500D02*
D03*
X435000D02*
D03*
X464500Y349000D02*
D03*
X434500D02*
D03*
X464500Y329500D02*
D03*
X434500D02*
D03*
X464500Y311000D02*
D03*
X434500D02*
D03*
X356000Y415500D02*
D03*
Y385500D02*
D03*
X368000Y212500D02*
D03*
X338000D02*
D03*
D23*
X462000Y261343D02*
D03*
D24*
Y251500D02*
D03*
Y241657D02*
D03*
X453843Y215000D02*
D03*
X463685D02*
D03*
X452500Y380000D02*
D03*
X462343D02*
D03*
X296500Y197500D02*
D03*
X306343D02*
D03*
D25*
X444000Y215000D02*
D03*
X442657Y380000D02*
D03*
X286657Y197500D02*
D03*
D26*
X368600Y346000D02*
D03*
X359500Y322700D02*
D03*
X270500Y251000D02*
D03*
X313700Y234700D02*
D03*
X324900Y195500D02*
D03*
X428300Y205200D02*
D03*
X384600Y318900D02*
D03*
X319500Y347000D02*
D03*
X363100Y338500D02*
D03*
X317800Y337000D02*
D03*
M02*
