G04*
G04 #@! TF.GenerationSoftware,Altium Limited,Altium Designer,22.10.1 (41)*
G04*
G04 Layer_Color=16711935*
%FSLAX25Y25*%
%MOIN*%
G70*
G04*
G04 #@! TF.SameCoordinates,1A4408B6-C678-4EC5-8732-532A1CECFF35*
G04*
G04*
G04 #@! TF.FilePolarity,Positive*
G04*
G01*
G75*
%ADD11C,0.00787*%
%ADD14C,0.01000*%
G36*
X342000Y319639D02*
X341501D01*
X340904Y321426D01*
Y321429D01*
X340901Y321437D01*
X340897Y321448D01*
X340890Y321466D01*
X340875Y321510D01*
X340857Y321564D01*
X340839Y321626D01*
X340817Y321688D01*
X340799Y321746D01*
X340784Y321797D01*
X340781Y321790D01*
X340777Y321772D01*
X340766Y321739D01*
X340752Y321695D01*
X340733Y321637D01*
X340708Y321568D01*
X340682Y321488D01*
X340650Y321393D01*
X340045Y319639D01*
X339598D01*
Y322158D01*
X339918D01*
Y320050D01*
X340653Y322158D01*
X340952D01*
X341680Y320013D01*
Y322158D01*
X342000D01*
Y319639D01*
D02*
G37*
G36*
X339055D02*
X338087D01*
X338021Y319642D01*
X337949Y319646D01*
X337876Y319653D01*
X337803Y319664D01*
X337741Y319675D01*
X337738D01*
X337730Y319679D01*
X337719D01*
X337705Y319686D01*
X337665Y319697D01*
X337614Y319715D01*
X337556Y319741D01*
X337494Y319773D01*
X337432Y319810D01*
X337374Y319857D01*
X337370Y319861D01*
X337366Y319864D01*
X337355Y319875D01*
X337341Y319886D01*
X337304Y319923D01*
X337261Y319973D01*
X337213Y320035D01*
X337162Y320108D01*
X337115Y320192D01*
X337075Y320286D01*
Y320290D01*
X337071Y320298D01*
X337064Y320312D01*
X337061Y320334D01*
X337050Y320359D01*
X337042Y320389D01*
X337035Y320421D01*
X337024Y320461D01*
X337013Y320501D01*
X337006Y320549D01*
X336988Y320651D01*
X336977Y320763D01*
X336973Y320887D01*
Y320891D01*
Y320898D01*
Y320916D01*
Y320935D01*
X336977Y320960D01*
Y320989D01*
X336981Y321058D01*
X336991Y321138D01*
X337002Y321222D01*
X337020Y321309D01*
X337042Y321397D01*
Y321400D01*
X337046Y321408D01*
X337050Y321419D01*
X337053Y321433D01*
X337068Y321473D01*
X337090Y321524D01*
X337111Y321582D01*
X337141Y321641D01*
X337177Y321703D01*
X337213Y321761D01*
X337217Y321768D01*
X337232Y321786D01*
X337253Y321812D01*
X337283Y321845D01*
X337315Y321881D01*
X337355Y321917D01*
X337395Y321957D01*
X337443Y321990D01*
X337450Y321994D01*
X337465Y322005D01*
X337490Y322019D01*
X337526Y322037D01*
X337570Y322059D01*
X337621Y322077D01*
X337679Y322099D01*
X337745Y322117D01*
X337752D01*
X337763Y322121D01*
X337774Y322125D01*
X337810Y322128D01*
X337861Y322136D01*
X337920Y322143D01*
X337989Y322150D01*
X338065Y322154D01*
X338149Y322158D01*
X339055D01*
Y319639D01*
D02*
G37*
G36*
X335787Y320188D02*
X335790Y320192D01*
X335808Y320206D01*
X335830Y320228D01*
X335867Y320254D01*
X335907Y320286D01*
X335958Y320323D01*
X336016Y320363D01*
X336081Y320403D01*
X336085D01*
X336089Y320407D01*
X336110Y320421D01*
X336147Y320439D01*
X336191Y320461D01*
X336242Y320487D01*
X336296Y320512D01*
X336351Y320538D01*
X336405Y320560D01*
Y320261D01*
X336402D01*
X336394Y320254D01*
X336380Y320250D01*
X336362Y320239D01*
X336340Y320228D01*
X336314Y320214D01*
X336252Y320177D01*
X336180Y320137D01*
X336107Y320086D01*
X336030Y320028D01*
X335954Y319966D01*
X335950Y319963D01*
X335947Y319959D01*
X335936Y319948D01*
X335921Y319937D01*
X335889Y319901D01*
X335845Y319857D01*
X335801Y319806D01*
X335754Y319748D01*
X335714Y319690D01*
X335677Y319628D01*
X335477D01*
Y322158D01*
X335787D01*
Y320188D01*
D02*
G37*
G36*
X461944Y255559D02*
X461966D01*
X462024Y255548D01*
X462093Y255537D01*
X462166Y255519D01*
X462246Y255493D01*
X462323Y255457D01*
X462326D01*
X462330Y255453D01*
X462341Y255446D01*
X462355Y255438D01*
X462392Y255417D01*
X462439Y255384D01*
X462490Y255344D01*
X462541Y255296D01*
X462592Y255238D01*
X462636Y255176D01*
Y255173D01*
X462639Y255169D01*
X462646Y255158D01*
X462650Y255144D01*
X462668Y255107D01*
X462686Y255060D01*
X462708Y254998D01*
X462723Y254929D01*
X462738Y254852D01*
X462741Y254769D01*
Y254750D01*
X462738Y254732D01*
Y254703D01*
X462734Y254670D01*
X462727Y254634D01*
X462716Y254590D01*
X462705Y254547D01*
X462690Y254496D01*
X462672Y254445D01*
X462650Y254394D01*
X462621Y254339D01*
X462588Y254288D01*
X462552Y254237D01*
X462508Y254186D01*
X462457Y254139D01*
X462454Y254135D01*
X462443Y254128D01*
X462428Y254117D01*
X462403Y254103D01*
X462370Y254081D01*
X462333Y254063D01*
X462286Y254041D01*
X462235Y254019D01*
X462173Y253993D01*
X462104Y253972D01*
X462028Y253953D01*
X461944Y253935D01*
X461849Y253917D01*
X461747Y253906D01*
X461638Y253899D01*
X461522Y253895D01*
X461518D01*
X461514D01*
X461504D01*
X461489D01*
X461453Y253899D01*
X461402D01*
X461343Y253902D01*
X461274Y253910D01*
X461198Y253917D01*
X461114Y253928D01*
X461030Y253942D01*
X460939Y253961D01*
X460852Y253982D01*
X460765Y254008D01*
X460681Y254041D01*
X460601Y254077D01*
X460524Y254117D01*
X460459Y254165D01*
X460455Y254168D01*
X460448Y254175D01*
X460433Y254190D01*
X460412Y254208D01*
X460390Y254230D01*
X460368Y254259D01*
X460339Y254295D01*
X460313Y254332D01*
X460288Y254376D01*
X460259Y254423D01*
X460237Y254478D01*
X460211Y254532D01*
X460193Y254594D01*
X460179Y254660D01*
X460171Y254729D01*
X460168Y254802D01*
Y254831D01*
X460171Y254852D01*
Y254878D01*
X460175Y254907D01*
X460189Y254976D01*
X460208Y255053D01*
X460237Y255133D01*
X460281Y255213D01*
X460306Y255253D01*
X460335Y255289D01*
X460339Y255293D01*
X460342Y255296D01*
X460353Y255307D01*
X460364Y255318D01*
X460382Y255337D01*
X460404Y255351D01*
X460455Y255391D01*
X460521Y255431D01*
X460601Y255468D01*
X460692Y255500D01*
X460794Y255522D01*
X460819Y255213D01*
X460816D01*
X460812Y255209D01*
X460790Y255205D01*
X460757Y255195D01*
X460717Y255180D01*
X460674Y255166D01*
X460630Y255144D01*
X460590Y255118D01*
X460557Y255093D01*
X460550Y255085D01*
X460535Y255071D01*
X460513Y255045D01*
X460488Y255009D01*
X460466Y254962D01*
X460444Y254911D01*
X460430Y254849D01*
X460422Y254783D01*
Y254758D01*
X460426Y254729D01*
X460433Y254696D01*
X460444Y254652D01*
X460459Y254609D01*
X460477Y254565D01*
X460506Y254521D01*
X460510Y254514D01*
X460524Y254496D01*
X460550Y254470D01*
X460586Y254437D01*
X460630Y254401D01*
X460681Y254361D01*
X460746Y254325D01*
X460819Y254288D01*
X460823D01*
X460830Y254285D01*
X460841Y254281D01*
X460856Y254274D01*
X460877Y254270D01*
X460903Y254263D01*
X460932Y254256D01*
X460968Y254248D01*
X461009Y254237D01*
X461052Y254230D01*
X461099Y254223D01*
X461150Y254219D01*
X461209Y254212D01*
X461267Y254208D01*
X461332Y254205D01*
X461398D01*
X461394Y254208D01*
X461373Y254223D01*
X461343Y254248D01*
X461307Y254281D01*
X461263Y254317D01*
X461223Y254365D01*
X461183Y254416D01*
X461147Y254474D01*
Y254478D01*
X461143Y254481D01*
X461132Y254503D01*
X461121Y254536D01*
X461103Y254579D01*
X461089Y254630D01*
X461078Y254689D01*
X461067Y254750D01*
X461063Y254816D01*
Y254845D01*
X461067Y254867D01*
X461070Y254896D01*
X461074Y254925D01*
X461081Y254962D01*
X461092Y254998D01*
X461118Y255082D01*
X461136Y255125D01*
X461161Y255169D01*
X461187Y255213D01*
X461216Y255260D01*
X461252Y255304D01*
X461292Y255344D01*
X461296Y255347D01*
X461303Y255355D01*
X461314Y255366D01*
X461332Y255377D01*
X461358Y255395D01*
X461383Y255413D01*
X461416Y255431D01*
X461453Y255453D01*
X461493Y255475D01*
X461536Y255493D01*
X461587Y255511D01*
X461638Y255529D01*
X461693Y255540D01*
X461755Y255551D01*
X461817Y255559D01*
X461882Y255562D01*
X461886D01*
X461893D01*
X461904D01*
X461922D01*
X461944Y255559D01*
D02*
G37*
G36*
X462697Y253298D02*
X462173Y252967D01*
X462170D01*
X462162Y252960D01*
X462151Y252952D01*
X462137Y252941D01*
X462097Y252916D01*
X462046Y252883D01*
X461991Y252843D01*
X461933Y252803D01*
X461878Y252763D01*
X461828Y252727D01*
X461824Y252723D01*
X461809Y252712D01*
X461787Y252694D01*
X461762Y252668D01*
X461707Y252614D01*
X461682Y252585D01*
X461660Y252556D01*
X461656Y252552D01*
X461653Y252545D01*
X461646Y252530D01*
X461635Y252508D01*
X461624Y252486D01*
X461613Y252461D01*
X461594Y252403D01*
Y252399D01*
X461591Y252392D01*
Y252377D01*
X461587Y252359D01*
X461584Y252334D01*
Y252304D01*
X461580Y252264D01*
Y251835D01*
X462697D01*
Y251500D01*
X460179D01*
Y252668D01*
X460182Y252698D01*
Y252730D01*
X460186Y252807D01*
X460197Y252887D01*
X460208Y252974D01*
X460226Y253054D01*
X460237Y253094D01*
X460248Y253127D01*
Y253131D01*
X460251Y253134D01*
X460262Y253156D01*
X460277Y253189D01*
X460302Y253229D01*
X460335Y253273D01*
X460379Y253320D01*
X460430Y253364D01*
X460488Y253407D01*
X460492D01*
X460495Y253411D01*
X460517Y253426D01*
X460554Y253440D01*
X460601Y253462D01*
X460655Y253480D01*
X460721Y253498D01*
X460790Y253509D01*
X460866Y253513D01*
X460870D01*
X460877D01*
X460892D01*
X460910Y253509D01*
X460936D01*
X460961Y253506D01*
X461023Y253491D01*
X461096Y253469D01*
X461172Y253440D01*
X461249Y253396D01*
X461285Y253367D01*
X461321Y253338D01*
X461325Y253335D01*
X461329Y253331D01*
X461340Y253320D01*
X461351Y253305D01*
X461365Y253287D01*
X461380Y253265D01*
X461398Y253236D01*
X461420Y253207D01*
X461438Y253171D01*
X461456Y253131D01*
X461478Y253087D01*
X461496Y253040D01*
X461511Y252985D01*
X461529Y252930D01*
X461540Y252869D01*
X461551Y252803D01*
X461554Y252810D01*
X461562Y252825D01*
X461576Y252847D01*
X461591Y252876D01*
X461631Y252941D01*
X461656Y252974D01*
X461678Y253003D01*
X461686Y253011D01*
X461704Y253029D01*
X461733Y253058D01*
X461769Y253094D01*
X461820Y253134D01*
X461875Y253182D01*
X461940Y253229D01*
X462013Y253280D01*
X462697Y253713D01*
Y253298D01*
D02*
G37*
G36*
X450683Y215738D02*
X450712Y215734D01*
X450745Y215730D01*
X450785Y215727D01*
X450825Y215716D01*
X450916Y215694D01*
X451007Y215661D01*
X451054Y215639D01*
X451102Y215614D01*
X451145Y215585D01*
X451189Y215552D01*
X451193Y215548D01*
X451200Y215545D01*
X451207Y215530D01*
X451222Y215515D01*
X451240Y215497D01*
X451258Y215475D01*
X451280Y215446D01*
X451298Y215413D01*
X451320Y215381D01*
X451342Y215341D01*
X451382Y215253D01*
X451415Y215151D01*
X451426Y215097D01*
X451433Y215039D01*
X451109Y215013D01*
Y215017D01*
Y215024D01*
X451105Y215035D01*
X451102Y215053D01*
X451091Y215093D01*
X451076Y215148D01*
X451054Y215202D01*
X451025Y215264D01*
X450989Y215319D01*
X450945Y215370D01*
X450938Y215373D01*
X450923Y215388D01*
X450894Y215406D01*
X450854Y215428D01*
X450810Y215450D01*
X450756Y215468D01*
X450694Y215483D01*
X450625Y215486D01*
X450603D01*
X450588Y215483D01*
X450545Y215479D01*
X450494Y215464D01*
X450432Y215446D01*
X450370Y215417D01*
X450305Y215373D01*
X450275Y215348D01*
X450246Y215319D01*
X450243Y215315D01*
X450239Y215312D01*
X450232Y215301D01*
X450221Y215290D01*
X450195Y215250D01*
X450166Y215199D01*
X450141Y215137D01*
X450115Y215060D01*
X450097Y214969D01*
X450090Y214922D01*
Y214871D01*
Y214867D01*
Y214860D01*
Y214846D01*
X450093Y214827D01*
Y214806D01*
X450097Y214780D01*
X450108Y214722D01*
X450126Y214653D01*
X450152Y214584D01*
X450188Y214518D01*
X450239Y214456D01*
Y214453D01*
X450246Y214449D01*
X450265Y214431D01*
X450297Y214405D01*
X450341Y214376D01*
X450399Y214351D01*
X450465Y214325D01*
X450541Y214307D01*
X450585Y214300D01*
X450654D01*
X450683Y214303D01*
X450719Y214307D01*
X450763Y214318D01*
X450807Y214329D01*
X450854Y214347D01*
X450902Y214369D01*
X450905Y214372D01*
X450920Y214380D01*
X450942Y214398D01*
X450971Y214416D01*
X451000Y214442D01*
X451029Y214474D01*
X451062Y214507D01*
X451087Y214547D01*
X451378Y214507D01*
X451134Y213211D01*
X449882D01*
Y213506D01*
X450891D01*
X451025Y214187D01*
X451022Y214183D01*
X451014Y214180D01*
X451003Y214172D01*
X450985Y214161D01*
X450963Y214150D01*
X450938Y214136D01*
X450880Y214107D01*
X450807Y214078D01*
X450727Y214052D01*
X450639Y214034D01*
X450596Y214027D01*
X450516D01*
X450494Y214030D01*
X450465Y214034D01*
X450432Y214038D01*
X450395Y214045D01*
X450355Y214056D01*
X450268Y214081D01*
X450221Y214100D01*
X450174Y214125D01*
X450126Y214150D01*
X450079Y214180D01*
X450035Y214216D01*
X449992Y214256D01*
X449988Y214260D01*
X449981Y214267D01*
X449970Y214278D01*
X449955Y214296D01*
X449937Y214321D01*
X449919Y214347D01*
X449897Y214380D01*
X449875Y214416D01*
X449857Y214456D01*
X449835Y214500D01*
X449817Y214551D01*
X449799Y214602D01*
X449784Y214656D01*
X449773Y214718D01*
X449766Y214780D01*
X449762Y214846D01*
Y214849D01*
Y214860D01*
Y214878D01*
X449766Y214904D01*
X449769Y214933D01*
X449773Y214966D01*
X449780Y215006D01*
X449788Y215046D01*
X449810Y215141D01*
X449846Y215239D01*
X449868Y215290D01*
X449897Y215337D01*
X449926Y215388D01*
X449962Y215435D01*
X449966Y215439D01*
X449973Y215450D01*
X449988Y215464D01*
X450006Y215483D01*
X450032Y215505D01*
X450061Y215534D01*
X450097Y215559D01*
X450137Y215588D01*
X450181Y215617D01*
X450232Y215643D01*
X450286Y215668D01*
X450345Y215694D01*
X450406Y215712D01*
X450476Y215727D01*
X450548Y215738D01*
X450625Y215741D01*
X450658D01*
X450683Y215738D01*
D02*
G37*
G36*
X453843Y213179D02*
X452674D01*
X452645Y213182D01*
X452612D01*
X452536Y213186D01*
X452456Y213197D01*
X452368Y213208D01*
X452288Y213226D01*
X452248Y213237D01*
X452215Y213248D01*
X452212D01*
X452208Y213251D01*
X452186Y213262D01*
X452154Y213277D01*
X452114Y213302D01*
X452070Y213335D01*
X452023Y213379D01*
X451979Y213430D01*
X451935Y213488D01*
Y213492D01*
X451932Y213495D01*
X451917Y213517D01*
X451902Y213554D01*
X451881Y213601D01*
X451862Y213655D01*
X451844Y213721D01*
X451833Y213790D01*
X451830Y213866D01*
Y213870D01*
Y213877D01*
Y213892D01*
X451833Y213910D01*
Y213936D01*
X451837Y213961D01*
X451852Y214023D01*
X451873Y214096D01*
X451902Y214172D01*
X451946Y214249D01*
X451975Y214285D01*
X452004Y214321D01*
X452008Y214325D01*
X452012Y214329D01*
X452023Y214340D01*
X452037Y214351D01*
X452055Y214365D01*
X452077Y214380D01*
X452106Y214398D01*
X452135Y214420D01*
X452172Y214438D01*
X452212Y214456D01*
X452256Y214478D01*
X452303Y214496D01*
X452357Y214511D01*
X452412Y214529D01*
X452474Y214540D01*
X452539Y214551D01*
X452532Y214555D01*
X452518Y214562D01*
X452496Y214576D01*
X452467Y214591D01*
X452401Y214631D01*
X452368Y214656D01*
X452339Y214678D01*
X452332Y214686D01*
X452314Y214704D01*
X452285Y214733D01*
X452248Y214769D01*
X452208Y214820D01*
X452161Y214875D01*
X452114Y214940D01*
X452063Y215013D01*
X451629Y215697D01*
X452044D01*
X452376Y215173D01*
Y215170D01*
X452383Y215162D01*
X452390Y215151D01*
X452401Y215137D01*
X452427Y215097D01*
X452459Y215046D01*
X452499Y214991D01*
X452539Y214933D01*
X452579Y214878D01*
X452616Y214827D01*
X452620Y214824D01*
X452631Y214809D01*
X452649Y214787D01*
X452674Y214762D01*
X452729Y214707D01*
X452758Y214682D01*
X452787Y214660D01*
X452791Y214656D01*
X452798Y214653D01*
X452812Y214646D01*
X452834Y214635D01*
X452856Y214624D01*
X452882Y214613D01*
X452940Y214595D01*
X452944D01*
X452951Y214591D01*
X452965D01*
X452984Y214587D01*
X453009Y214584D01*
X453038D01*
X453078Y214580D01*
X453508D01*
Y215697D01*
X453843D01*
Y213179D01*
D02*
G37*
G36*
X452500Y378222D02*
X451332D01*
X451302Y378226D01*
X451270D01*
X451193Y378229D01*
X451113Y378240D01*
X451026Y378251D01*
X450946Y378270D01*
X450906Y378280D01*
X450873Y378291D01*
X450869D01*
X450866Y378295D01*
X450844Y378306D01*
X450811Y378321D01*
X450771Y378346D01*
X450727Y378379D01*
X450680Y378422D01*
X450636Y378473D01*
X450593Y378532D01*
Y378535D01*
X450589Y378539D01*
X450574Y378561D01*
X450560Y378597D01*
X450538Y378644D01*
X450520Y378699D01*
X450502Y378765D01*
X450491Y378834D01*
X450487Y378910D01*
Y378914D01*
Y378921D01*
Y378936D01*
X450491Y378954D01*
Y378979D01*
X450494Y379005D01*
X450509Y379067D01*
X450531Y379139D01*
X450560Y379216D01*
X450604Y379292D01*
X450633Y379329D01*
X450662Y379365D01*
X450665Y379369D01*
X450669Y379373D01*
X450680Y379383D01*
X450695Y379394D01*
X450713Y379409D01*
X450735Y379423D01*
X450764Y379442D01*
X450793Y379464D01*
X450829Y379482D01*
X450869Y379500D01*
X450913Y379522D01*
X450960Y379540D01*
X451015Y379555D01*
X451069Y379573D01*
X451131Y379584D01*
X451197Y379594D01*
X451190Y379598D01*
X451175Y379605D01*
X451153Y379620D01*
X451124Y379635D01*
X451059Y379675D01*
X451026Y379700D01*
X450997Y379722D01*
X450989Y379729D01*
X450971Y379747D01*
X450942Y379777D01*
X450906Y379813D01*
X450866Y379864D01*
X450818Y379919D01*
X450771Y379984D01*
X450720Y380057D01*
X450287Y380741D01*
X450702D01*
X451033Y380217D01*
Y380213D01*
X451040Y380206D01*
X451048Y380195D01*
X451059Y380181D01*
X451084Y380140D01*
X451117Y380090D01*
X451157Y380035D01*
X451197Y379977D01*
X451237Y379922D01*
X451273Y379871D01*
X451277Y379868D01*
X451288Y379853D01*
X451306Y379831D01*
X451332Y379806D01*
X451386Y379751D01*
X451415Y379726D01*
X451444Y379704D01*
X451448Y379700D01*
X451455Y379696D01*
X451470Y379689D01*
X451492Y379678D01*
X451514Y379667D01*
X451539Y379656D01*
X451597Y379638D01*
X451601D01*
X451608Y379635D01*
X451623D01*
X451641Y379631D01*
X451666Y379627D01*
X451696D01*
X451736Y379624D01*
X452165D01*
Y380741D01*
X452500D01*
Y378222D01*
D02*
G37*
G36*
X449715Y380737D02*
Y380727D01*
Y380712D01*
X449712Y380690D01*
Y380661D01*
X449708Y380625D01*
X449705Y380585D01*
X449701Y380541D01*
X449694Y380490D01*
X449686Y380439D01*
X449675Y380377D01*
X449664Y380315D01*
X449653Y380250D01*
X449639Y380177D01*
X449603Y380028D01*
Y380024D01*
X449599Y380010D01*
X449592Y379988D01*
X449581Y379955D01*
X449570Y379919D01*
X449555Y379875D01*
X449541Y379824D01*
X449519Y379769D01*
X449497Y379707D01*
X449475Y379645D01*
X449421Y379507D01*
X449355Y379362D01*
X449282Y379216D01*
X449279Y379212D01*
X449271Y379198D01*
X449260Y379180D01*
X449246Y379150D01*
X449228Y379118D01*
X449202Y379078D01*
X449177Y379034D01*
X449148Y378987D01*
X449078Y378881D01*
X449006Y378772D01*
X448922Y378659D01*
X448835Y378554D01*
X450069D01*
Y378255D01*
X448438D01*
Y378499D01*
X448441Y378502D01*
X448449Y378510D01*
X448463Y378524D01*
X448478Y378546D01*
X448500Y378572D01*
X448529Y378601D01*
X448558Y378637D01*
X448591Y378681D01*
X448623Y378725D01*
X448663Y378776D01*
X448703Y378834D01*
X448743Y378892D01*
X448787Y378958D01*
X448831Y379027D01*
X448875Y379103D01*
X448918Y379180D01*
X448922Y379183D01*
X448929Y379198D01*
X448940Y379220D01*
X448958Y379252D01*
X448977Y379292D01*
X448998Y379336D01*
X449024Y379387D01*
X449049Y379445D01*
X449078Y379511D01*
X449111Y379576D01*
X449140Y379649D01*
X449169Y379726D01*
X449228Y379882D01*
X449282Y380049D01*
Y380053D01*
X449286Y380064D01*
X449290Y380082D01*
X449297Y380104D01*
X449304Y380133D01*
X449311Y380170D01*
X449322Y380210D01*
X449330Y380253D01*
X449340Y380304D01*
X449351Y380359D01*
X449370Y380475D01*
X449388Y380603D01*
X449399Y380741D01*
X449715D01*
Y380737D01*
D02*
G37*
G36*
X296500Y195722D02*
X295332D01*
X295302Y195726D01*
X295270D01*
X295193Y195729D01*
X295113Y195740D01*
X295026Y195751D01*
X294946Y195770D01*
X294906Y195781D01*
X294873Y195791D01*
X294869D01*
X294866Y195795D01*
X294844Y195806D01*
X294811Y195820D01*
X294771Y195846D01*
X294727Y195879D01*
X294680Y195922D01*
X294636Y195973D01*
X294593Y196032D01*
Y196035D01*
X294589Y196039D01*
X294574Y196061D01*
X294560Y196097D01*
X294538Y196144D01*
X294520Y196199D01*
X294502Y196265D01*
X294491Y196334D01*
X294487Y196410D01*
Y196414D01*
Y196421D01*
Y196436D01*
X294491Y196454D01*
Y196479D01*
X294494Y196505D01*
X294509Y196567D01*
X294531Y196640D01*
X294560Y196716D01*
X294604Y196792D01*
X294633Y196829D01*
X294662Y196865D01*
X294665Y196869D01*
X294669Y196872D01*
X294680Y196883D01*
X294695Y196894D01*
X294713Y196909D01*
X294735Y196923D01*
X294764Y196942D01*
X294793Y196964D01*
X294829Y196982D01*
X294869Y197000D01*
X294913Y197022D01*
X294960Y197040D01*
X295015Y197055D01*
X295070Y197073D01*
X295131Y197084D01*
X295197Y197095D01*
X295190Y197098D01*
X295175Y197105D01*
X295153Y197120D01*
X295124Y197135D01*
X295059Y197175D01*
X295026Y197200D01*
X294997Y197222D01*
X294989Y197229D01*
X294971Y197247D01*
X294942Y197276D01*
X294906Y197313D01*
X294866Y197364D01*
X294818Y197418D01*
X294771Y197484D01*
X294720Y197557D01*
X294287Y198241D01*
X294702D01*
X295033Y197717D01*
Y197713D01*
X295040Y197706D01*
X295048Y197695D01*
X295059Y197681D01*
X295084Y197641D01*
X295117Y197590D01*
X295157Y197535D01*
X295197Y197477D01*
X295237Y197422D01*
X295273Y197371D01*
X295277Y197368D01*
X295288Y197353D01*
X295306Y197331D01*
X295332Y197306D01*
X295386Y197251D01*
X295415Y197226D01*
X295444Y197204D01*
X295448Y197200D01*
X295455Y197196D01*
X295470Y197189D01*
X295492Y197178D01*
X295514Y197167D01*
X295539Y197156D01*
X295597Y197138D01*
X295601D01*
X295608Y197135D01*
X295623D01*
X295641Y197131D01*
X295666Y197127D01*
X295696D01*
X295736Y197124D01*
X296165D01*
Y198241D01*
X296500D01*
Y195722D01*
D02*
G37*
G36*
X293235Y196272D02*
X293239Y196275D01*
X293257Y196290D01*
X293279Y196312D01*
X293315Y196337D01*
X293355Y196370D01*
X293406Y196407D01*
X293464Y196447D01*
X293530Y196487D01*
X293533D01*
X293537Y196490D01*
X293559Y196505D01*
X293595Y196523D01*
X293639Y196545D01*
X293690Y196570D01*
X293744Y196596D01*
X293799Y196621D01*
X293854Y196643D01*
Y196345D01*
X293850D01*
X293843Y196337D01*
X293828Y196334D01*
X293810Y196323D01*
X293788Y196312D01*
X293763Y196297D01*
X293701Y196261D01*
X293628Y196221D01*
X293555Y196170D01*
X293479Y196112D01*
X293402Y196050D01*
X293399Y196046D01*
X293395Y196043D01*
X293384Y196032D01*
X293370Y196021D01*
X293337Y195984D01*
X293293Y195941D01*
X293250Y195890D01*
X293202Y195831D01*
X293162Y195773D01*
X293126Y195711D01*
X292926D01*
Y198241D01*
X293235D01*
Y196272D01*
D02*
G37*
G36*
X291277D02*
X291280Y196275D01*
X291298Y196290D01*
X291320Y196312D01*
X291357Y196337D01*
X291397Y196370D01*
X291448Y196407D01*
X291506Y196447D01*
X291571Y196487D01*
X291575D01*
X291579Y196490D01*
X291601Y196505D01*
X291637Y196523D01*
X291681Y196545D01*
X291732Y196570D01*
X291786Y196596D01*
X291841Y196621D01*
X291895Y196643D01*
Y196345D01*
X291892D01*
X291884Y196337D01*
X291870Y196334D01*
X291852Y196323D01*
X291830Y196312D01*
X291804Y196297D01*
X291742Y196261D01*
X291670Y196221D01*
X291597Y196170D01*
X291521Y196112D01*
X291444Y196050D01*
X291440Y196046D01*
X291437Y196043D01*
X291426Y196032D01*
X291411Y196021D01*
X291378Y195984D01*
X291335Y195941D01*
X291291Y195890D01*
X291244Y195831D01*
X291204Y195773D01*
X291167Y195711D01*
X290967D01*
Y198241D01*
X291277D01*
Y196272D01*
D02*
G37*
%LPC*%
G36*
X338720Y321859D02*
X338123D01*
X338098Y321855D01*
X338043Y321852D01*
X337982Y321848D01*
X337916Y321841D01*
X337850Y321830D01*
X337796Y321815D01*
X337789Y321812D01*
X337770Y321808D01*
X337745Y321797D01*
X337712Y321783D01*
X337676Y321761D01*
X337639Y321739D01*
X337603Y321713D01*
X337566Y321684D01*
X337563Y321677D01*
X337548Y321662D01*
X337526Y321637D01*
X337501Y321601D01*
X337472Y321553D01*
X337439Y321499D01*
X337410Y321437D01*
X337385Y321368D01*
Y321364D01*
X337381Y321357D01*
X337377Y321346D01*
X337374Y321331D01*
X337370Y321313D01*
X337363Y321288D01*
X337355Y321262D01*
X337348Y321233D01*
X337337Y321160D01*
X337326Y321076D01*
X337319Y320982D01*
X337315Y320880D01*
Y320876D01*
Y320862D01*
Y320844D01*
X337319Y320814D01*
Y320782D01*
X337323Y320745D01*
X337326Y320702D01*
X337330Y320658D01*
X337348Y320560D01*
X337370Y320458D01*
X337403Y320363D01*
X337424Y320316D01*
X337446Y320276D01*
Y320272D01*
X337454Y320265D01*
X337461Y320254D01*
X337468Y320239D01*
X337497Y320203D01*
X337534Y320159D01*
X337581Y320112D01*
X337636Y320064D01*
X337698Y320024D01*
X337763Y319992D01*
X337770Y319988D01*
X337789Y319984D01*
X337821Y319973D01*
X337869Y319963D01*
X337927Y319955D01*
X338000Y319944D01*
X338043Y319941D01*
X338091D01*
X338138Y319937D01*
X338720D01*
Y321859D01*
D02*
G37*
G36*
X461900Y255246D02*
X461897D01*
X461889D01*
X461875D01*
X461857Y255242D01*
X461835D01*
X461809Y255238D01*
X461751Y255227D01*
X461686Y255213D01*
X461616Y255187D01*
X461551Y255151D01*
X461489Y255104D01*
X461482Y255096D01*
X461463Y255078D01*
X461442Y255049D01*
X461412Y255009D01*
X461383Y254958D01*
X461362Y254900D01*
X461343Y254831D01*
X461336Y254754D01*
Y254732D01*
X461340Y254718D01*
X461343Y254681D01*
X461354Y254630D01*
X461373Y254576D01*
X461402Y254514D01*
X461438Y254456D01*
X461489Y254397D01*
X461496Y254390D01*
X461514Y254376D01*
X461547Y254350D01*
X461594Y254325D01*
X461649Y254299D01*
X461718Y254274D01*
X461795Y254259D01*
X461882Y254252D01*
X461889D01*
X461908D01*
X461940Y254256D01*
X461980Y254259D01*
X462028Y254266D01*
X462079Y254281D01*
X462133Y254295D01*
X462188Y254317D01*
X462195Y254321D01*
X462213Y254332D01*
X462239Y254346D01*
X462272Y254368D01*
X462304Y254394D01*
X462344Y254427D01*
X462377Y254463D01*
X462410Y254507D01*
X462414Y254514D01*
X462421Y254528D01*
X462435Y254554D01*
X462446Y254587D01*
X462461Y254623D01*
X462475Y254667D01*
X462483Y254714D01*
X462486Y254765D01*
Y254783D01*
X462483Y254798D01*
X462479Y254834D01*
X462468Y254882D01*
X462446Y254932D01*
X462421Y254991D01*
X462381Y255049D01*
X462359Y255078D01*
X462330Y255104D01*
X462326D01*
X462323Y255111D01*
X462301Y255125D01*
X462264Y255147D01*
X462217Y255176D01*
X462155Y255202D01*
X462082Y255224D01*
X461999Y255238D01*
X461900Y255246D01*
D02*
G37*
G36*
X460870Y253171D02*
X460866D01*
X460863D01*
X460841Y253167D01*
X460808Y253164D01*
X460765Y253156D01*
X460721Y253138D01*
X460670Y253116D01*
X460623Y253083D01*
X460575Y253040D01*
X460572Y253032D01*
X460557Y253014D01*
X460539Y252985D01*
X460517Y252938D01*
X460495Y252883D01*
X460477Y252810D01*
X460463Y252727D01*
X460459Y252628D01*
Y251835D01*
X461292D01*
Y252585D01*
X461289Y252628D01*
X461285Y252679D01*
X461281Y252738D01*
X461274Y252796D01*
X461263Y252854D01*
X461249Y252905D01*
X461245Y252912D01*
X461238Y252927D01*
X461227Y252949D01*
X461212Y252978D01*
X461191Y253011D01*
X461165Y253043D01*
X461132Y253076D01*
X461096Y253102D01*
X461092Y253105D01*
X461078Y253113D01*
X461056Y253123D01*
X461027Y253138D01*
X460994Y253149D01*
X460957Y253160D01*
X460914Y253167D01*
X460870Y253171D01*
D02*
G37*
G36*
X453508Y214292D02*
X452758D01*
X452714Y214289D01*
X452663Y214285D01*
X452605Y214282D01*
X452547Y214274D01*
X452489Y214263D01*
X452438Y214249D01*
X452430Y214245D01*
X452416Y214238D01*
X452394Y214227D01*
X452365Y214212D01*
X452332Y214191D01*
X452299Y214165D01*
X452267Y214132D01*
X452241Y214096D01*
X452237Y214092D01*
X452230Y214078D01*
X452219Y214056D01*
X452205Y214027D01*
X452194Y213994D01*
X452183Y213958D01*
X452176Y213914D01*
X452172Y213870D01*
Y213866D01*
Y213863D01*
X452176Y213841D01*
X452179Y213808D01*
X452186Y213765D01*
X452205Y213721D01*
X452226Y213670D01*
X452259Y213623D01*
X452303Y213575D01*
X452310Y213572D01*
X452328Y213557D01*
X452357Y213539D01*
X452405Y213517D01*
X452459Y213495D01*
X452532Y213477D01*
X452616Y213462D01*
X452714Y213459D01*
X453508D01*
Y214292D01*
D02*
G37*
G36*
X452165Y379336D02*
X451415D01*
X451372Y379332D01*
X451321Y379329D01*
X451262Y379325D01*
X451204Y379318D01*
X451146Y379307D01*
X451095Y379292D01*
X451088Y379289D01*
X451073Y379281D01*
X451051Y379271D01*
X451022Y379256D01*
X450989Y379234D01*
X450957Y379209D01*
X450924Y379176D01*
X450898Y379139D01*
X450895Y379136D01*
X450887Y379121D01*
X450877Y379099D01*
X450862Y379070D01*
X450851Y379038D01*
X450840Y379001D01*
X450833Y378958D01*
X450829Y378914D01*
Y378910D01*
Y378907D01*
X450833Y378885D01*
X450837Y378852D01*
X450844Y378808D01*
X450862Y378765D01*
X450884Y378714D01*
X450917Y378666D01*
X450960Y378619D01*
X450968Y378615D01*
X450986Y378601D01*
X451015Y378583D01*
X451062Y378561D01*
X451117Y378539D01*
X451190Y378521D01*
X451273Y378506D01*
X451372Y378502D01*
X452165D01*
Y379336D01*
D02*
G37*
G36*
X296165Y196836D02*
X295415D01*
X295372Y196832D01*
X295321Y196829D01*
X295262Y196825D01*
X295204Y196818D01*
X295146Y196807D01*
X295095Y196792D01*
X295088Y196789D01*
X295073Y196782D01*
X295051Y196771D01*
X295022Y196756D01*
X294989Y196734D01*
X294957Y196709D01*
X294924Y196676D01*
X294898Y196640D01*
X294895Y196636D01*
X294887Y196621D01*
X294877Y196599D01*
X294862Y196570D01*
X294851Y196538D01*
X294840Y196501D01*
X294833Y196458D01*
X294829Y196414D01*
Y196410D01*
Y196407D01*
X294833Y196385D01*
X294836Y196352D01*
X294844Y196308D01*
X294862Y196265D01*
X294884Y196214D01*
X294917Y196166D01*
X294960Y196119D01*
X294968Y196115D01*
X294986Y196101D01*
X295015Y196083D01*
X295062Y196061D01*
X295117Y196039D01*
X295190Y196021D01*
X295273Y196006D01*
X295372Y196002D01*
X296165D01*
Y196836D01*
D02*
G37*
%LPD*%
D11*
X379795Y270484D02*
Y373831D01*
X304205D02*
X379795D01*
X304205Y270484D02*
Y373831D01*
Y270484D02*
X379795D01*
X451843Y231854D02*
X472157D01*
Y271146D01*
X451843D02*
X472157D01*
X451843Y231854D02*
Y271146D01*
X473488Y204843D02*
Y225157D01*
X434197D02*
X473488D01*
X434197Y204843D02*
Y225157D01*
Y204843D02*
X473488D01*
X472146Y369843D02*
Y390157D01*
X432854D02*
X472146D01*
X432854Y369843D02*
Y390157D01*
Y369843D02*
X472146D01*
X316146Y187343D02*
Y207657D01*
X276854D02*
X316146D01*
X276854Y187343D02*
Y207657D01*
Y187343D02*
X316146D01*
D14*
X248500Y442000D02*
X483000D01*
Y175000D02*
Y442000D01*
X248500Y175000D02*
X483000D01*
X248500D02*
Y442000D01*
M02*
