G04*
G04 #@! TF.GenerationSoftware,Altium Limited,Altium Designer,22.10.1 (41)*
G04*
G04 Layer_Physical_Order=2*
G04 Layer_Color=16711680*
%FSLAX25Y25*%
%MOIN*%
G70*
G04*
G04 #@! TF.SameCoordinates,1A4408B6-C678-4EC5-8732-532A1CECFF35*
G04*
G04*
G04 #@! TF.FilePolarity,Positive*
G04*
G01*
G75*
%ADD14C,0.01000*%
%ADD23R,0.05512X0.05512*%
%ADD24C,0.05512*%
%ADD25R,0.05512X0.05512*%
%ADD27C,0.02756*%
%ADD28C,0.06000*%
%ADD29R,0.05906X0.05906*%
%ADD30C,0.05906*%
%ADD31R,0.05906X0.05906*%
%ADD32C,0.05000*%
D14*
X248500Y442000D02*
X483000D01*
Y175000D02*
Y442000D01*
X248500Y175000D02*
X483000D01*
X248500D02*
Y442000D01*
D23*
X462000Y261343D02*
D03*
D24*
X337500Y193500D02*
D03*
X367500D02*
D03*
X416000Y194000D02*
D03*
X386000D02*
D03*
X465000Y290500D02*
D03*
X435000D02*
D03*
X464500Y349000D02*
D03*
X434500D02*
D03*
X464500Y329500D02*
D03*
X434500D02*
D03*
X464500Y311000D02*
D03*
X434500D02*
D03*
X462000Y251500D02*
D03*
Y241657D02*
D03*
X453843Y215000D02*
D03*
X463685D02*
D03*
X452500Y380000D02*
D03*
X462343D02*
D03*
X356000Y415500D02*
D03*
Y385500D02*
D03*
X368000Y212500D02*
D03*
X338000D02*
D03*
X296500Y197500D02*
D03*
X306343D02*
D03*
D25*
X444000Y215000D02*
D03*
X442657Y380000D02*
D03*
X286657Y197500D02*
D03*
D27*
X325100Y425300D02*
X374763D01*
X315900Y416100D02*
X325100Y425300D01*
X315900Y416100D02*
X322500Y409500D01*
X436385Y187700D02*
X463685Y215000D01*
X316143Y187700D02*
X436385D01*
X443775Y214775D02*
X444000Y215000D01*
X437000Y216500D02*
X438725Y214775D01*
X443775D01*
X417500Y216500D02*
X437000D01*
X306343Y197500D02*
X316143Y187700D01*
X459268Y220425D02*
Y221268D01*
X453843Y215000D02*
X459268Y220425D01*
Y221268D02*
X467800Y229800D01*
Y266400D01*
X459000Y275200D02*
X467800Y266400D01*
X406600Y275200D02*
X459000D01*
X364800Y317000D02*
X406600Y275200D01*
X283000Y317000D02*
X364800D01*
X440200Y430300D02*
X452500Y418000D01*
X283400Y430300D02*
X440200D01*
X452500Y380000D02*
Y418000D01*
X436000Y391000D02*
Y407500D01*
X415879Y416942D02*
X436000D01*
X338000Y212500D02*
X349900D01*
X356100Y206300D01*
X377300D01*
X387500Y216500D01*
X408000Y290500D02*
X435000D01*
X405000Y293500D02*
X408000Y290500D01*
X368600Y346000D02*
X401100Y313500D01*
X405000D01*
X407500Y311000D02*
X435000D01*
X405000Y313500D02*
X407500Y311000D01*
X409000Y329500D02*
X434500D01*
X405000Y333500D02*
X409000Y329500D01*
X409500Y349000D02*
X434000D01*
X405000Y353500D02*
X409500Y349000D01*
X304600Y397400D02*
X350000Y352000D01*
Y332200D02*
Y352000D01*
Y332200D02*
X359500Y322700D01*
X337900Y397400D02*
X356000Y415500D01*
X304600Y397400D02*
X337900D01*
X292500Y409500D02*
X304600Y397400D01*
X332900Y227900D02*
X346500Y241500D01*
X303600Y227900D02*
X332900D01*
X292000Y239500D02*
X303600Y227900D01*
X374763Y425300D02*
X386705Y413358D01*
X356500Y241500D02*
X359000Y239000D01*
X410000D01*
X417500Y246500D01*
X402000Y252000D02*
X407500Y246500D01*
X402000Y252000D02*
Y266500D01*
X405000Y269500D01*
X453843D01*
X462000Y261343D01*
X276000Y253500D02*
X282000Y259500D01*
X276000Y235000D02*
Y253500D01*
Y235000D02*
X290200Y220800D01*
X335700D01*
X343500Y228600D01*
X439100D01*
X462000Y251500D01*
X270500Y417400D02*
X283400Y430300D01*
X270500Y251000D02*
Y417400D01*
X292000Y249500D02*
X298900D01*
X313700Y234700D01*
X324900Y195500D02*
X335500D01*
X337500Y193500D01*
X386000Y194000D02*
X402600D01*
X413800Y205200D01*
X428300D01*
X370847Y332653D02*
X384600Y318900D01*
X360000Y332653D02*
X370847D01*
X356000Y336653D02*
X360000Y332653D01*
X356000Y336653D02*
Y385500D01*
X283000Y347000D02*
X319500D01*
X363100Y338500D02*
Y350000D01*
X366600Y353500D01*
X405000D01*
X430500Y385500D02*
X436000Y391000D01*
X356000Y385500D02*
X430500D01*
X283000Y337000D02*
X317800D01*
X283000Y377000D02*
X290000Y384000D01*
Y392800D01*
X286500Y396300D02*
X290000Y392800D01*
X286500Y396300D02*
Y412600D01*
X290000Y416100D01*
X315900D01*
X366847Y415500D02*
X386705Y395642D01*
X356000Y415500D02*
X366847D01*
X391600Y200600D02*
X407500Y216500D01*
X350000Y200600D02*
X391600D01*
X347300Y203300D02*
X350000Y200600D01*
X302300Y203300D02*
X347300D01*
X296500Y197500D02*
X302300Y203300D01*
X292000Y259500D02*
X338500D01*
X346500Y251500D01*
X368000Y212500D02*
X378000Y222500D01*
X393500D01*
Y220500D02*
Y222500D01*
Y220500D02*
X397500Y216500D01*
X361500Y246500D02*
X387500D01*
X356500Y251500D02*
X361500Y246500D01*
X412295Y413358D02*
X415879Y416942D01*
X386705Y395642D02*
X412295D01*
X346500Y241500D02*
X356500D01*
X386705Y413358D02*
X412295D01*
X346500Y251500D02*
X356500D01*
D28*
X467500Y191000D02*
D03*
X264000Y426500D02*
D03*
X264500Y191000D02*
D03*
X467000Y426500D02*
D03*
D29*
X356500Y251500D02*
D03*
X412295Y395642D02*
D03*
X332500Y409500D02*
D03*
X418000Y263500D02*
D03*
D30*
X356500Y241500D02*
D03*
X346500Y251500D02*
D03*
Y241500D02*
D03*
X336500Y251500D02*
D03*
Y241500D02*
D03*
X412295Y413358D02*
D03*
X386705D02*
D03*
Y395642D02*
D03*
X282000Y239500D02*
D03*
X292000Y249500D02*
D03*
X282000D02*
D03*
X292000Y259500D02*
D03*
X282000D02*
D03*
X405000Y303500D02*
D03*
Y313500D02*
D03*
Y323500D02*
D03*
Y333500D02*
D03*
Y343500D02*
D03*
Y353500D02*
D03*
Y363500D02*
D03*
X283000Y327000D02*
D03*
Y337000D02*
D03*
Y347000D02*
D03*
Y357000D02*
D03*
Y367000D02*
D03*
Y377000D02*
D03*
Y387000D02*
D03*
Y317000D02*
D03*
X436000Y407500D02*
D03*
X292500Y409500D02*
D03*
X302500D02*
D03*
X312500D02*
D03*
X322500D02*
D03*
X408000Y263500D02*
D03*
X397500Y216500D02*
D03*
X407500D02*
D03*
X417500D02*
D03*
X387500Y246500D02*
D03*
X397500D02*
D03*
X407500D02*
D03*
X417500D02*
D03*
D31*
X292000Y239500D02*
D03*
X405000Y293500D02*
D03*
X283000Y307000D02*
D03*
X436000Y417500D02*
D03*
X387500Y216500D02*
D03*
D32*
X368600Y346000D02*
D03*
X359500Y322700D02*
D03*
X270500Y251000D02*
D03*
X313700Y234700D02*
D03*
X324900Y195500D02*
D03*
X428300Y205200D02*
D03*
X384600Y318900D02*
D03*
X319500Y347000D02*
D03*
X363100Y338500D02*
D03*
X317800Y337000D02*
D03*
M02*
