G04*
G04 #@! TF.GenerationSoftware,Altium Limited,Altium Designer,22.10.1 (41)*
G04*
G04 Layer_Physical_Order=1*
G04 Layer_Color=255*
%FSLAX25Y25*%
%MOIN*%
G70*
G04*
G04 #@! TF.SameCoordinates,1A4408B6-C678-4EC5-8732-532A1CECFF35*
G04*
G04*
G04 #@! TF.FilePolarity,Positive*
G04*
G01*
G75*
%ADD14C,0.01000*%
%ADD15R,0.05236X0.05236*%
%ADD16R,0.03543X0.07874*%
%ADD17R,0.07874X0.03543*%
%ADD23R,0.05512X0.05512*%
%ADD24C,0.05512*%
%ADD25R,0.05512X0.05512*%
%ADD27C,0.02756*%
%ADD28C,0.06000*%
%ADD29R,0.05906X0.05906*%
%ADD30C,0.05906*%
%ADD31R,0.05906X0.05906*%
%ADD32C,0.05000*%
D14*
X248500Y442000D02*
X483000D01*
Y175000D02*
Y442000D01*
X248500Y175000D02*
X483000D01*
X248500D02*
Y442000D01*
D15*
X338713Y337315D02*
D03*
X345937D02*
D03*
X353161D02*
D03*
X338713Y330091D02*
D03*
X345937D02*
D03*
X353161D02*
D03*
X338713Y322866D02*
D03*
X345937D02*
D03*
X353161D02*
D03*
D16*
X319500Y369500D02*
D03*
X324500D02*
D03*
X329500D02*
D03*
X334500D02*
D03*
X339500D02*
D03*
X344500D02*
D03*
X349500D02*
D03*
X354500D02*
D03*
X359500D02*
D03*
X364500D02*
D03*
D17*
X308535Y300563D02*
D03*
Y305563D02*
D03*
Y310563D02*
D03*
Y315563D02*
D03*
Y320563D02*
D03*
Y325563D02*
D03*
Y330563D02*
D03*
Y335563D02*
D03*
Y340563D02*
D03*
Y345563D02*
D03*
Y350563D02*
D03*
Y355563D02*
D03*
Y360563D02*
D03*
Y365563D02*
D03*
X375465D02*
D03*
Y360563D02*
D03*
Y355563D02*
D03*
Y350563D02*
D03*
Y345563D02*
D03*
Y340563D02*
D03*
Y335563D02*
D03*
Y330563D02*
D03*
Y325563D02*
D03*
Y320563D02*
D03*
Y315563D02*
D03*
Y310563D02*
D03*
Y305563D02*
D03*
Y300563D02*
D03*
D23*
X462000Y261343D02*
D03*
D24*
X337500Y193500D02*
D03*
X367500D02*
D03*
X416000Y194000D02*
D03*
X386000D02*
D03*
X465000Y290500D02*
D03*
X435000D02*
D03*
X464500Y349000D02*
D03*
X434500D02*
D03*
X464500Y329500D02*
D03*
X434500D02*
D03*
X464500Y311000D02*
D03*
X434500D02*
D03*
X462000Y251500D02*
D03*
Y241657D02*
D03*
X453843Y215000D02*
D03*
X463685D02*
D03*
X452500Y380000D02*
D03*
X462343D02*
D03*
X356000Y415500D02*
D03*
Y385500D02*
D03*
X368000Y212500D02*
D03*
X338000D02*
D03*
X296500Y197500D02*
D03*
X306343D02*
D03*
D25*
X444000Y215000D02*
D03*
X442657Y380000D02*
D03*
X286657Y197500D02*
D03*
D27*
X337700Y181800D02*
X439300D01*
X472500Y215000D02*
Y393500D01*
X439300Y181800D02*
X472500Y215000D01*
X428300Y212300D02*
X454900Y238900D01*
Y254243D01*
X428300Y205200D02*
Y212300D01*
X467800Y219861D02*
Y287700D01*
X463685Y215746D02*
X467800Y219861D01*
X463685Y215000D02*
Y215746D01*
X465000Y290500D02*
X467800Y287700D01*
X390000Y429900D02*
X436100D01*
X472500Y393500D01*
X464000Y349000D02*
X468100Y353100D01*
X436000Y407500D02*
X446500D01*
X468100Y353100D02*
Y385900D01*
X446500Y407500D02*
X468100Y385900D01*
X285100Y270400D02*
X298000D01*
X264300Y291200D02*
Y402300D01*
Y291200D02*
X285100Y270400D01*
X264300Y402300D02*
X286500Y424500D01*
X268631Y398631D02*
X285500Y415500D01*
X268631Y299569D02*
Y398631D01*
Y299569D02*
X273700Y294500D01*
X464500Y329500D02*
Y349000D01*
Y311000D02*
X465000Y310500D01*
Y290500D02*
Y310500D01*
X464500Y311000D02*
Y329500D01*
X375465Y365563D02*
Y420535D01*
X366000Y430000D02*
X375465Y420535D01*
X284500Y430000D02*
X366000D01*
X286500Y424500D02*
X333500D01*
X258500Y212800D02*
Y404000D01*
X284500Y430000D01*
X285500Y415500D02*
X296500D01*
X302500Y409500D01*
X361800Y382400D02*
Y396200D01*
X333500Y424500D02*
X361800Y396200D01*
X258500Y212800D02*
X280000Y191300D01*
X375465Y340563D02*
X382500D01*
X387354Y345417D01*
Y374654D01*
X397000Y384300D01*
Y421084D01*
X399511Y423595D01*
X419669D01*
X424000Y419264D01*
Y214500D02*
Y419264D01*
X420000Y210500D02*
X424000Y214500D01*
X393500Y210500D02*
X420000D01*
X387500Y216500D02*
X393500Y210500D01*
X375465Y335563D02*
X389300D01*
X392300Y338563D01*
Y373100D01*
X401400Y382200D01*
Y411300D01*
X409364Y419264D01*
X415336D01*
X418300Y416300D01*
Y306800D02*
Y416300D01*
X405000Y293500D02*
X418300Y306800D01*
X369037Y345563D02*
X375465D01*
X368600Y346000D02*
X369037Y345563D01*
X359500Y321063D02*
Y322700D01*
Y321063D02*
X370000Y310563D01*
X375465D01*
X292000Y202843D02*
Y239500D01*
X286657Y197500D02*
X292000Y202843D01*
X364500Y360939D02*
Y369500D01*
X353161Y349600D02*
X364500Y360939D01*
X353161Y337315D02*
Y349600D01*
X402063Y300563D02*
X405000Y303500D01*
X399000Y300563D02*
X402063D01*
X399000Y282500D02*
Y300563D01*
Y282500D02*
X418000Y263500D01*
X375465Y300563D02*
X399000D01*
X405000Y303500D01*
X412295Y407695D02*
Y413358D01*
X405900Y401300D02*
X412295Y407695D01*
X405900Y380600D02*
Y401300D01*
X405000Y363500D02*
X405900Y380600D01*
X388800Y263500D02*
X408000D01*
X377264Y251964D02*
X388800Y263500D01*
X377264Y206264D02*
Y251964D01*
Y206264D02*
X383836D01*
X396100Y194000D01*
X416000D01*
X270500Y251000D02*
X282000Y239500D01*
X286563Y360563D02*
X308535D01*
X283000Y357000D02*
X286563Y360563D01*
X313700Y193400D02*
Y234700D01*
X311600Y191300D02*
X313700Y193400D01*
X280000Y191300D02*
X311600D01*
X359500Y369500D02*
Y380100D01*
X361800Y382400D01*
X298000Y270400D02*
X312569Y255831D01*
X332169D01*
X336500Y251500D01*
X306343Y197500D02*
Y245157D01*
X292000Y259500D02*
X306343Y245157D01*
X276000Y255500D02*
X282000Y249500D01*
X276000Y255500D02*
Y262500D01*
X279000Y265500D01*
X294400D01*
X324900Y235000D01*
Y195500D02*
Y235000D01*
X375465Y360563D02*
X382400D01*
Y389000D01*
X380700Y390700D02*
X382400Y389000D01*
X380700Y390700D02*
Y420600D01*
X390000Y429900D01*
X331700Y187800D02*
X337700Y181800D01*
X331700Y187800D02*
Y236700D01*
X336500Y241500D01*
X312300Y389300D02*
X332500Y409500D01*
X285300Y389300D02*
X312300D01*
X283000Y387000D02*
X285300Y389300D01*
X454900Y254243D02*
X462000Y261343D01*
X308535Y300563D02*
X316409D01*
X338713Y322866D01*
X301100Y315563D02*
X308535D01*
X301100Y298400D02*
Y315563D01*
X297200Y294500D02*
X301100Y298400D01*
X273700Y294500D02*
X297200D01*
X397500Y238406D02*
Y246500D01*
X381594Y222500D02*
X397500Y238406D01*
X381594Y210594D02*
Y222500D01*
Y210594D02*
X385630D01*
X394525Y201700D01*
X416500D01*
X421800Y196400D01*
Y190000D02*
Y196400D01*
X418400Y186600D02*
X421800Y190000D01*
X344400Y186600D02*
X418400D01*
X337500Y193500D02*
X344400Y186600D01*
X299563Y320563D02*
X308535D01*
X296500Y317500D02*
X299563Y320563D01*
X296500Y307500D02*
Y317500D01*
X290000Y301000D02*
X296500Y307500D01*
X278400Y301000D02*
X290000D01*
X277000Y302400D02*
X278400Y301000D01*
X277000Y302400D02*
Y390000D01*
X282200Y395200D01*
X298200D01*
X312500Y409500D01*
X375465Y305563D02*
X382400D01*
Y316700D01*
X384600Y318900D01*
X319500Y347000D02*
Y369500D01*
X366037Y330563D02*
X375465D01*
X363100Y333500D02*
X366037Y330563D01*
X363100Y333500D02*
Y338500D01*
X397063Y325563D02*
X405000Y333500D01*
X375465Y325563D02*
X397063D01*
X324500Y369500D02*
Y376500D01*
X292500D02*
X324500D01*
X283000Y367000D02*
X292500Y376500D01*
X356000Y385500D02*
Y393500D01*
X340000Y409500D02*
X356000Y393500D01*
X332500Y409500D02*
X340000D01*
X301356Y335563D02*
X308535D01*
X289391Y323598D02*
X301356Y335563D01*
X289391Y313391D02*
Y323598D01*
X283000Y307000D02*
X289391Y313391D01*
X317800Y308363D02*
Y337000D01*
X315000Y305563D02*
X317800Y308363D01*
X308535Y305563D02*
X315000D01*
X353161Y315902D02*
Y322866D01*
Y315902D02*
X368500Y300563D01*
X375465D01*
X296563Y340563D02*
X308535D01*
X283000Y327000D02*
X296563Y340563D01*
X442657Y280685D02*
X462000Y261343D01*
X442657Y280685D02*
Y380000D01*
X399000Y349500D02*
X405000Y343500D01*
X399000Y349500D02*
Y357500D01*
X405000Y363500D01*
Y343500D02*
X411000Y337500D01*
Y329500D02*
Y337500D01*
X405000Y323500D02*
X411000Y329500D01*
X399000Y309500D02*
X405000Y303500D01*
X399000Y309500D02*
Y317500D01*
X405000Y323500D01*
X353161Y330091D02*
Y337315D01*
X345937Y330091D02*
X353161D01*
X345937Y337315D02*
X353161D01*
X338713D02*
X345937D01*
X338713Y330091D02*
Y337315D01*
Y322866D02*
Y330091D01*
X345937Y322866D02*
X353161D01*
X338713D02*
X345937D01*
X417500Y216500D02*
Y246500D01*
X418000Y255200D02*
Y263500D01*
X417500Y254700D02*
X418000Y255200D01*
X417500Y246500D02*
Y254700D01*
X368000Y203200D02*
Y212500D01*
X367500Y202700D02*
X368000Y203200D01*
X367500Y193500D02*
Y202700D01*
D28*
X467500Y191000D02*
D03*
X264000Y426500D02*
D03*
X264500Y191000D02*
D03*
X467000Y426500D02*
D03*
D29*
X356500Y251500D02*
D03*
X412295Y395642D02*
D03*
X332500Y409500D02*
D03*
X418000Y263500D02*
D03*
D30*
X356500Y241500D02*
D03*
X346500Y251500D02*
D03*
Y241500D02*
D03*
X336500Y251500D02*
D03*
Y241500D02*
D03*
X412295Y413358D02*
D03*
X386705D02*
D03*
Y395642D02*
D03*
X282000Y239500D02*
D03*
X292000Y249500D02*
D03*
X282000D02*
D03*
X292000Y259500D02*
D03*
X282000D02*
D03*
X405000Y303500D02*
D03*
Y313500D02*
D03*
Y323500D02*
D03*
Y333500D02*
D03*
Y343500D02*
D03*
Y353500D02*
D03*
Y363500D02*
D03*
X283000Y327000D02*
D03*
Y337000D02*
D03*
Y347000D02*
D03*
Y357000D02*
D03*
Y367000D02*
D03*
Y377000D02*
D03*
Y387000D02*
D03*
Y317000D02*
D03*
X436000Y407500D02*
D03*
X292500Y409500D02*
D03*
X302500D02*
D03*
X312500D02*
D03*
X322500D02*
D03*
X408000Y263500D02*
D03*
X397500Y216500D02*
D03*
X407500D02*
D03*
X417500D02*
D03*
X387500Y246500D02*
D03*
X397500D02*
D03*
X407500D02*
D03*
X417500D02*
D03*
D31*
X292000Y239500D02*
D03*
X405000Y293500D02*
D03*
X283000Y307000D02*
D03*
X436000Y417500D02*
D03*
X387500Y216500D02*
D03*
D32*
X368600Y346000D02*
D03*
X359500Y322700D02*
D03*
X270500Y251000D02*
D03*
X313700Y234700D02*
D03*
X324900Y195500D02*
D03*
X428300Y205200D02*
D03*
X384600Y318900D02*
D03*
X319500Y347000D02*
D03*
X363100Y338500D02*
D03*
X317800Y337000D02*
D03*
M02*
