G04*
G04 #@! TF.GenerationSoftware,Altium Limited,Altium Designer,22.10.1 (41)*
G04*
G04 Layer_Color=16711935*
%FSLAX25Y25*%
%MOIN*%
G70*
G04*
G04 #@! TF.SameCoordinates,1A4408B6-C678-4EC5-8732-532A1CECFF35*
G04*
G04*
G04 #@! TF.FilePolarity,Positive*
G04*
G01*
G75*
%ADD11C,0.00787*%
%ADD14C,0.01000*%
%ADD33C,0.00394*%
D11*
X377630Y270878D02*
Y371665D01*
X306370D02*
X377630D01*
X306370Y270878D02*
Y371665D01*
Y270878D02*
X377630D01*
X452236Y232248D02*
X471764D01*
Y270752D01*
X452236D02*
X471764D01*
X452236Y232248D02*
Y270752D01*
X473095Y205236D02*
Y224764D01*
X434591D02*
X473095D01*
X434591Y205236D02*
Y224764D01*
Y205236D02*
X473095D01*
X471752Y370236D02*
Y389764D01*
X433248D02*
X471752D01*
X433248Y370236D02*
Y389764D01*
Y370236D02*
X471752D01*
X315752Y187736D02*
Y207264D01*
X277248D02*
X315752D01*
X277248Y187736D02*
Y207264D01*
Y187736D02*
X315752D01*
D14*
X248500Y442000D02*
X483000D01*
Y175000D02*
Y442000D01*
X248500Y175000D02*
X483000D01*
X248500D02*
Y442000D01*
D33*
X388327Y221067D02*
X388063Y222051D01*
X387343Y222772D01*
X386358Y223035D01*
X385374Y222772D01*
X384653Y222051D01*
X384390Y221067D01*
X384653Y220083D01*
X385374Y219362D01*
X386358Y219098D01*
X387343Y219362D01*
X388063Y220083D01*
X388327Y221067D01*
X387709Y416291D02*
X411291D01*
X387709Y392709D02*
Y416291D01*
Y392709D02*
X411291D01*
Y416291D01*
X382815Y217524D02*
X422185D01*
X382815Y245476D02*
X422185D01*
X382815Y217524D02*
Y245476D01*
X422185Y217524D02*
Y245476D01*
M02*
