M48
;Layer_Color=9474304
;FILE_FORMAT=2:4
INCH,TZ
;TYPE=PLATED
T1F00S00C0.0280
T2F00S00C0.0335
T3F00S00C0.0354
T4F00S00C0.0390
T5F00S00C0.1181
%
T01
X32490Y19550
X31370Y23470
X42830Y20520
X27050Y25100
X31780Y33700
X31950Y34700
X36860Y34600
X36310Y33850
X35950Y32270
X38460Y31890
T02
X33750Y19350
X33800Y21250
X36800
X36750Y19350
X38600Y19400
X41600
X43500Y29050
X43450Y31100
X46450
X46500Y29050
X46450Y32950
Y34900
X43450
Y32950
X35600Y38550
Y41550
T03
X33650Y24150
X34650
X35650
Y25150
X34650
X33650
X38750Y24650
X39750
X40750
X41750
X41800Y26350
X40800
X40500Y29350
Y30350
X40750Y21650
X39750
X38750
X41750
X44400Y21500
X45384
X46369
X46200Y24166
Y25150
Y26134
X29200Y25950
Y24950
Y23950
X28200
Y24950
Y25950
X28300Y30700
X28666Y19750
X29650
X30634
X28300Y31700
Y32700
Y33700
Y34700
Y35700
Y36700
Y37700
Y38700
X29250Y40950
X30250
X31250
X32250
X33250
X43600Y40750
Y41750
X44266Y38000
X45250
X46234
X40500Y36350
Y35350
Y34350
Y33350
Y32350
Y31350
T04
X38670Y39564
Y41336
X41230
Y39564
T05
X46750Y19100
X26450
X26400Y42650
X46700
M30
